<?xml version="1.0" standalone="no"?>
<!DOCTYPE svg PUBLIC "-//W3C//DTD SVG 20010904//EN"
 "http://www.w3.org/TR/2001/REC-SVG-20010904/DTD/svg10.dtd">
<svg version="1.0" xmlns="http://www.w3.org/2000/svg"
 width="600.000000pt" height="300.000000pt" viewBox="0 0 600.000000 300.000000"
 preserveAspectRatio="xMidYMid meet">
<metadata>
Created by potrace 1.16, written by Peter Selinger 2001-2019
</metadata>
<g transform="translate(0.000000,300.000000) scale(0.100000,-0.100000)"
fill="#000000" stroke="none">
<path d="M1510 1683 c-72 -36 -201 -166 -313 -314 -48 -64 -87 -121 -87 -127
0 -5 6 -12 14 -15 9 -4 43 34 97 106 91 122 246 286 294 309 58 30 75 31 75 9
0 -72 -180 -429 -387 -769 -68 -111 -82 -152 -54 -152 6 0 25 21 42 48 216
316 550 696 701 796 65 43 138 60 138 32 0 -45 -70 -158 -313 -505 -184 -263
-211 -351 -106 -351 43 0 146 50 226 110 59 45 68 49 53 21 -17 -33 -12 -79
13 -102 48 -45 176 -2 342 116 44 31 100 76 125 100 116 110 130 66 39 -117
-22 -43 -39 -79 -39 -82 0 -2 7 -6 15 -10 10 -4 43 37 115 144 56 82 105 152
109 155 5 2 11 -15 13 -40 14 -124 122 -157 276 -85 36 17 86 47 110 68 70 59
105 82 124 82 16 0 15 -7 -12 -57 -29 -56 -54 -91 -134 -187 -29 -34 -36 -50
-28 -58 8 -8 41 17 123 91 132 121 208 180 267 210 79 40 75 22 -19 -102 -75
-100 -90 -124 -87 -150 4 -38 36 -53 91 -43 30 6 119 59 202 120 19 15 20 14
16 -30 -4 -57 17 -84 66 -84 63 0 133 42 240 144 l43 40 -10 -34 c-46 -159 62
-184 248 -59 26 18 68 50 94 72 l48 39 -6 -46 c-5 -36 -3 -47 9 -52 31 -11 93
31 187 126 l96 97 -68 -158 c-37 -87 -68 -163 -68 -168 0 -5 -20 -25 -45 -45
-54 -45 -189 -204 -257 -304 -140 -206 -157 -347 -41 -329 83 13 182 171 312
502 62 154 71 165 304 331 84 59 155 113 159 118 9 14 -7 30 -24 23 -12 -4
-256 -178 -320 -227 l-28 -21 41 98 c22 54 69 158 105 232 35 73 64 137 64
142 0 5 -8 9 -17 9 -11 -1 -53 -47 -103 -111 -85 -110 -228 -259 -249 -259
-20 0 -11 35 23 92 48 81 29 92 -43 26 -129 -118 -301 -228 -358 -228 -55 0
-47 55 30 203 35 69 47 101 40 108 -8 8 -17 4 -31 -12 -21 -21 -22 -21 -58 -4
-62 29 -129 17 -221 -39 -42 -27 -107 -74 -143 -105 -92 -81 -138 -115 -194
-145 -54 -29 -96 -34 -96 -12 0 8 43 71 95 141 52 69 95 130 95 135 0 5 -7 15
-15 24 -31 30 -125 -7 -240 -95 -46 -35 -63 -44 -55 -29 37 68 28 110 -21 110
-39 0 -61 -12 -134 -73 -82 -68 -171 -109 -241 -111 -49 -1 -58 2 -80 27 -28
33 -30 69 -9 151 15 56 13 76 -5 76 -5 0 -43 -46 -86 -102 -76 -103 -94 -125
-80 -100 12 20 -2 60 -24 72 -28 15 -78 -8 -137 -64 -66 -63 -185 -147 -263
-187 -81 -41 -153 -47 -158 -12 -5 32 39 109 112 197 60 72 71 96 45 96 -6 0
-45 -34 -87 -76 -137 -136 -314 -254 -381 -254 -21 0 -23 3 -17 32 8 40 71
142 206 333 203 285 270 398 270 451 0 52 -71 69 -145 35 -92 -41 -260 -199
-431 -403 -109 -131 -111 -133 -59 -38 119 216 185 375 185 445 0 71 -26 80
-110 38z m2416 -558 c18 -14 14 -19 -86 -117 -154 -150 -250 -195 -250 -115 0
134 243 302 336 232z m390 -571 c-104 -249 -188 -379 -240 -372 -56 8 -12 139
100 295 68 94 195 245 202 239 2 -3 -26 -76 -62 -162z"/>
</g>
</svg>
